<svg width="17" height="17" viewBox="0 0 17 17" fill="none" xmlns="http://www.w3.org/2000/svg">
<path d="M10.0016 6.10969C8.40424 6.79376 7.53799 5.7685 8.98504 4.8303C9.10704 4.75119 9.22184 4.67621 9.32703 4.60532C9.762 4.3122 9.73029 3.78164 9.23747 3.5878C8.96621 3.47263 8.66312 3.40685 8.3282 3.39045C7.99792 3.36739 7.64449 3.39204 7.26793 3.46442C6.45686 3.6203 5.80353 3.93913 5.30792 4.42091C4.81811 4.90158 4.49586 5.52023 4.34117 6.27687C4.19227 7.03239 4.22134 7.90371 4.42839 8.89082C4.63776 9.88901 4.95882 10.7158 5.39158 11.371C5.82434 12.0263 6.36124 12.4885 7.00229 12.7576C7.64334 13.0267 8.38098 13.081 9.21521 12.9207C9.95096 12.7793 10.5406 12.5593 10.9842 12.2605C11.4336 11.9607 11.7404 11.5989 11.9047 11.175C11.9225 11.1289 11.9388 11.0822 11.9535 11.0351C12.1507 10.4006 12.6361 9.76878 13.333 9.76323L13.4221 9.76252C14.2028 9.7563 14.7064 8.97563 14.3573 8.31288C13.9848 7.60581 12.9365 7.56771 12.5081 8.24568L11.2186 10.2865C10.8349 10.8939 10.0164 11.1086 9.35847 10.7745C8.98925 10.587 8.72788 10.2525 8.64613 9.86274L8.57544 9.52573C8.33826 8.39493 9.36695 7.38866 10.565 7.57951C11.0586 7.65814 11.5639 7.53074 11.9513 7.23001L12.3211 6.94289C13.6698 5.89583 15.6887 6.26604 16.5294 7.71459L16.6592 7.93821C16.7947 8.17167 16.9006 8.4216 16.9426 8.68515C17.1665 10.0916 16.6917 11.0806 16.272 12.2135C15.8187 13.4429 15.0512 14.4673 13.9695 15.2867C12.8924 16.0995 11.5775 16.6551 10.0249 16.9535C8.29272 17.2864 7.7762 15.7394 6.31918 15.2867C4.86217 14.8341 3.45913 15.5139 2.45003 14.3521C1.44673 13.1892 1.74912 12.8244 1.37225 11.0277C1.07681 9.6191 -0.193056 7.34154 0.0250468 6.16888C0.248943 4.9951 1.80758 4.21987 2.45003 3.31757C3.09131 2.40972 2.29003 1.89426 3.25836 1.31008C4.22553 0.720363 5.11997 0.308755 6.31918 0.0782755C7.37357 -0.124368 8.49135 0.683952 9.45559 0.798627C10.4245 0.906641 11.2033 -0.314935 12.009 0.0782813C12.8193 0.464838 11.5713 1.95572 12.15 2.5887C12.282 2.73305 12.507 2.83165 12.779 2.90779C14.3421 3.34541 14.2539 4.28869 12.7683 4.92486L10.0016 6.10969Z" fill="#151515"/>
</svg>
